<?xml version="1.0" encoding="UTF-8" standalone="no"?>
<!DOCTYPE svg PUBLIC "-//W3C//DTD SVG 1.1//EN"
 "http://www.w3.org/Graphics/SVG/1.1/DTD/svg11.dtd">
<!-- Generated by graphviz version 2.40.1 (20161225.0304)
 -->
<!-- Title: controllers_diagram Pages: 1 -->
<svg width="635pt" height="558pt"
 viewBox="0.00 0.00 635.43 558.00" xmlns="http://www.w3.org/2000/svg" xmlns:xlink="http://www.w3.org/1999/xlink">
<g id="graph0" class="graph" transform="scale(1 1) rotate(0) translate(4 554)">
<title>controllers_diagram</title>
<polygon fill="transparent" stroke="transparent" points="-4,4 -4,-554 631.4346,-554 631.4346,4 -4,4"/>
<!-- _diagram_info -->
<g id="node1" class="node">
<title>_diagram_info</title>
<text text-anchor="start" x="229" y="-109.6" font-family="Times,serif" font-size="13.00" fill="#000000">Controllers diagram</text>
<text text-anchor="start" x="229" y="-96.6" font-family="Times,serif" font-size="13.00" fill="#000000">Date: Dec 16 2018 &#45; 16:38</text>
<text text-anchor="start" x="229" y="-83.6" font-family="Times,serif" font-size="13.00" fill="#000000">Migration version: 20181216132026</text>
<text text-anchor="start" x="229" y="-70.6" font-family="Times,serif" font-size="13.00" fill="#000000">Generated by RailRoady 1.5.3</text>
<text text-anchor="start" x="229" y="-57.6" font-family="Times,serif" font-size="13.00" fill="#000000">http://railroady.prestonlee.com</text>
</g>
<!-- CoworkingfiltersController -->
<g id="node2" class="node">
<title>CoworkingfiltersController</title>
<path fill="none" stroke="#000000" d="M471,-.5C471,-.5 615.4346,-.5 615.4346,-.5 621.4346,-.5 627.4346,-6.5 627.4346,-12.5 627.4346,-12.5 627.4346,-106.5 627.4346,-106.5 627.4346,-112.5 621.4346,-118.5 615.4346,-118.5 615.4346,-118.5 471,-118.5 471,-118.5 465,-118.5 459,-112.5 459,-106.5 459,-106.5 459,-12.5 459,-12.5 459,-6.5 465,-.5 471,-.5"/>
<text text-anchor="middle" x="543.2173" y="-103.3" font-family="Times,serif" font-size="14.00" fill="#000000">CoworkingfiltersController</text>
<polyline fill="none" stroke="#000000" points="459,-96.5 627.4346,-96.5 "/>
<text text-anchor="start" x="467" y="-81.3" font-family="Times,serif" font-size="14.00" fill="#000000">create</text>
<text text-anchor="start" x="467" y="-67.3" font-family="Times,serif" font-size="14.00" fill="#000000">new</text>
<polyline fill="none" stroke="#000000" points="459,-60.5 627.4346,-60.5 "/>
<polyline fill="none" stroke="#000000" points="459,-36.5 627.4346,-36.5 "/>
<text text-anchor="start" x="467" y="-21.3" font-family="Times,serif" font-size="14.00" fill="#000000">_layout</text>
<text text-anchor="start" x="467" y="-7.3" font-family="Times,serif" font-size="14.00" fill="#000000">coworkingfilterparams</text>
</g>
<!-- ApplicationController -->
<g id="node3" class="node">
<title>ApplicationController</title>
<path fill="none" stroke="#000000" d="M12,-34.5C12,-34.5 127.6416,-34.5 127.6416,-34.5 133.6416,-34.5 139.6416,-40.5 139.6416,-46.5 139.6416,-46.5 139.6416,-114.5 139.6416,-114.5 139.6416,-120.5 133.6416,-126.5 127.6416,-126.5 127.6416,-126.5 12,-126.5 12,-126.5 6,-126.5 0,-120.5 0,-114.5 0,-114.5 0,-46.5 0,-46.5 0,-40.5 6,-34.5 12,-34.5"/>
<text text-anchor="middle" x="69.8208" y="-111.3" font-family="Times,serif" font-size="14.00" fill="#000000">ApplicationController</text>
<polyline fill="none" stroke="#000000" points="0,-104.5 139.6416,-104.5 "/>
<polyline fill="none" stroke="#000000" points="0,-80.5 139.6416,-80.5 "/>
<polyline fill="none" stroke="#000000" points="0,-56.5 139.6416,-56.5 "/>
<text text-anchor="start" x="8" y="-41.3" font-family="Times,serif" font-size="14.00" fill="#000000">_layout</text>
</g>
<!-- PagesController -->
<g id="node4" class="node">
<title>PagesController</title>
<path fill="none" stroke="#000000" d="M29,-459.5C29,-459.5 111.207,-459.5 111.207,-459.5 117.207,-459.5 123.207,-465.5 123.207,-471.5 123.207,-471.5 123.207,-537.5 123.207,-537.5 123.207,-543.5 117.207,-549.5 111.207,-549.5 111.207,-549.5 29,-549.5 29,-549.5 23,-549.5 17,-543.5 17,-537.5 17,-537.5 17,-471.5 17,-471.5 17,-465.5 23,-459.5 29,-459.5"/>
<text text-anchor="middle" x="70.1035" y="-534.3" font-family="Times,serif" font-size="14.00" fill="#000000">PagesController</text>
<polyline fill="none" stroke="#000000" points="17,-527.5 123.207,-527.5 "/>
<text text-anchor="start" x="25" y="-512.3" font-family="Times,serif" font-size="14.00" fill="#000000">index</text>
<polyline fill="none" stroke="#000000" points="17,-505.5 123.207,-505.5 "/>
<polyline fill="none" stroke="#000000" points="17,-481.5 123.207,-481.5 "/>
<text text-anchor="start" x="25" y="-466.3" font-family="Times,serif" font-size="14.00" fill="#000000">_layout</text>
</g>
<!-- SuggestionspacesController -->
<g id="node5" class="node">
<title>SuggestionspacesController</title>
<path fill="none" stroke="#000000" d="M352,-374.5C352,-374.5 500.3105,-374.5 500.3105,-374.5 506.3105,-374.5 512.3105,-380.5 512.3105,-386.5 512.3105,-386.5 512.3105,-480.5 512.3105,-480.5 512.3105,-486.5 506.3105,-492.5 500.3105,-492.5 500.3105,-492.5 352,-492.5 352,-492.5 346,-492.5 340,-486.5 340,-480.5 340,-480.5 340,-386.5 340,-386.5 340,-380.5 346,-374.5 352,-374.5"/>
<text text-anchor="middle" x="426.1553" y="-477.3" font-family="Times,serif" font-size="14.00" fill="#000000">SuggestionspacesController</text>
<polyline fill="none" stroke="#000000" points="340,-470.5 512.3105,-470.5 "/>
<text text-anchor="start" x="348" y="-455.3" font-family="Times,serif" font-size="14.00" fill="#000000">create</text>
<text text-anchor="start" x="348" y="-441.3" font-family="Times,serif" font-size="14.00" fill="#000000">new</text>
<polyline fill="none" stroke="#000000" points="340,-434.5 512.3105,-434.5 "/>
<polyline fill="none" stroke="#000000" points="340,-410.5 512.3105,-410.5 "/>
<text text-anchor="start" x="348" y="-395.3" font-family="Times,serif" font-size="14.00" fill="#000000">_layout</text>
<text text-anchor="start" x="348" y="-381.3" font-family="Times,serif" font-size="14.00" fill="#000000">suggestionspaceparams</text>
</g>
<!-- CoworkingspacesController -->
<g id="node6" class="node">
<title>CoworkingspacesController</title>
<path fill="none" stroke="#000000" d="M131,-153.5C131,-153.5 280.083,-153.5 280.083,-153.5 286.083,-153.5 292.083,-159.5 292.083,-165.5 292.083,-165.5 292.083,-315.5 292.083,-315.5 292.083,-321.5 286.083,-327.5 280.083,-327.5 280.083,-327.5 131,-327.5 131,-327.5 125,-327.5 119,-321.5 119,-315.5 119,-315.5 119,-165.5 119,-165.5 119,-159.5 125,-153.5 131,-153.5"/>
<text text-anchor="middle" x="205.5415" y="-312.3" font-family="Times,serif" font-size="14.00" fill="#000000">CoworkingspacesController</text>
<polyline fill="none" stroke="#000000" points="119,-305.5 292.083,-305.5 "/>
<text text-anchor="start" x="127" y="-290.3" font-family="Times,serif" font-size="14.00" fill="#000000">create</text>
<text text-anchor="start" x="127" y="-276.3" font-family="Times,serif" font-size="14.00" fill="#000000">filtered_spaces</text>
<text text-anchor="start" x="127" y="-262.3" font-family="Times,serif" font-size="14.00" fill="#000000">find_space</text>
<text text-anchor="start" x="127" y="-248.3" font-family="Times,serif" font-size="14.00" fill="#000000">index</text>
<text text-anchor="start" x="127" y="-234.3" font-family="Times,serif" font-size="14.00" fill="#000000">new</text>
<text text-anchor="start" x="127" y="-220.3" font-family="Times,serif" font-size="14.00" fill="#000000">show</text>
<polyline fill="none" stroke="#000000" points="119,-213.5 292.083,-213.5 "/>
<polyline fill="none" stroke="#000000" points="119,-189.5 292.083,-189.5 "/>
<text text-anchor="start" x="127" y="-174.3" font-family="Times,serif" font-size="14.00" fill="#000000">_layout</text>
<text text-anchor="start" x="127" y="-160.3" font-family="Times,serif" font-size="14.00" fill="#000000">coworkingspacesparams</text>
</g>
<!-- UserparamsController -->
<g id="node7" class="node">
<title>UserparamsController</title>
<path fill="none" stroke="#000000" d="M165,-357.5C165,-357.5 281.4072,-357.5 281.4072,-357.5 287.4072,-357.5 293.4072,-363.5 293.4072,-369.5 293.4072,-369.5 293.4072,-505.5 293.4072,-505.5 293.4072,-511.5 287.4072,-517.5 281.4072,-517.5 281.4072,-517.5 165,-517.5 165,-517.5 159,-517.5 153,-511.5 153,-505.5 153,-505.5 153,-369.5 153,-369.5 153,-363.5 159,-357.5 165,-357.5"/>
<text text-anchor="middle" x="223.2036" y="-502.3" font-family="Times,serif" font-size="14.00" fill="#000000">UserparamsController</text>
<polyline fill="none" stroke="#000000" points="153,-495.5 293.4072,-495.5 "/>
<text text-anchor="start" x="161" y="-480.3" font-family="Times,serif" font-size="14.00" fill="#000000">create</text>
<text text-anchor="start" x="161" y="-466.3" font-family="Times,serif" font-size="14.00" fill="#000000">edit</text>
<text text-anchor="start" x="161" y="-452.3" font-family="Times,serif" font-size="14.00" fill="#000000">new</text>
<text text-anchor="start" x="161" y="-438.3" font-family="Times,serif" font-size="14.00" fill="#000000">show</text>
<text text-anchor="start" x="161" y="-424.3" font-family="Times,serif" font-size="14.00" fill="#000000">update</text>
<polyline fill="none" stroke="#000000" points="153,-417.5 293.4072,-417.5 "/>
<polyline fill="none" stroke="#000000" points="153,-393.5 293.4072,-393.5 "/>
<text text-anchor="start" x="161" y="-378.3" font-family="Times,serif" font-size="14.00" fill="#000000">_layout</text>
<text text-anchor="start" x="161" y="-364.3" font-family="Times,serif" font-size="14.00" fill="#000000">profile_params</text>
</g>
<!-- OrderspacesController -->
<g id="node8" class="node">
<title>OrderspacesController</title>
<path fill="none" stroke="#000000" d="M335,-153.5C335,-153.5 453.7314,-153.5 453.7314,-153.5 459.7314,-153.5 465.7314,-159.5 465.7314,-165.5 465.7314,-165.5 465.7314,-329.5 465.7314,-329.5 465.7314,-335.5 459.7314,-341.5 453.7314,-341.5 453.7314,-341.5 335,-341.5 335,-341.5 329,-341.5 323,-335.5 323,-329.5 323,-329.5 323,-165.5 323,-165.5 323,-159.5 329,-153.5 335,-153.5"/>
<text text-anchor="middle" x="394.3657" y="-326.3" font-family="Times,serif" font-size="14.00" fill="#000000">OrderspacesController</text>
<polyline fill="none" stroke="#000000" points="323,-319.5 465.7314,-319.5 "/>
<text text-anchor="start" x="331" y="-304.3" font-family="Times,serif" font-size="14.00" fill="#000000">create</text>
<text text-anchor="start" x="331" y="-290.3" font-family="Times,serif" font-size="14.00" fill="#000000">destroy</text>
<text text-anchor="start" x="331" y="-276.3" font-family="Times,serif" font-size="14.00" fill="#000000">edit</text>
<text text-anchor="start" x="331" y="-262.3" font-family="Times,serif" font-size="14.00" fill="#000000">find_order</text>
<text text-anchor="start" x="331" y="-248.3" font-family="Times,serif" font-size="14.00" fill="#000000">new</text>
<text text-anchor="start" x="331" y="-234.3" font-family="Times,serif" font-size="14.00" fill="#000000">show</text>
<text text-anchor="start" x="331" y="-220.3" font-family="Times,serif" font-size="14.00" fill="#000000">update</text>
<polyline fill="none" stroke="#000000" points="323,-213.5 465.7314,-213.5 "/>
<polyline fill="none" stroke="#000000" points="323,-189.5 465.7314,-189.5 "/>
<text text-anchor="start" x="331" y="-174.3" font-family="Times,serif" font-size="14.00" fill="#000000">_layout</text>
<text text-anchor="start" x="331" y="-160.3" font-family="Times,serif" font-size="14.00" fill="#000000">orderspaceparams</text>
</g>
</g>
</svg>
