<?xml version="1.0" encoding="UTF-8" standalone="no"?>
<!DOCTYPE svg PUBLIC "-//W3C//DTD SVG 1.1//EN"
 "http://www.w3.org/Graphics/SVG/1.1/DTD/svg11.dtd">
<!-- Generated by graphviz version 2.40.1 (20161225.0304)
 -->
<!-- Title: models_diagram Pages: 1 -->
<svg width="733pt" height="225pt"
 viewBox="0.00 0.00 733.08 225.00" xmlns="http://www.w3.org/2000/svg" xmlns:xlink="http://www.w3.org/1999/xlink">
<g id="graph0" class="graph" transform="scale(1 1) rotate(0) translate(4 221)">
<title>models_diagram</title>
<polygon fill="transparent" stroke="transparent" points="-4,4 -4,-221 729.0835,-221 729.0835,4 -4,4"/>
<!-- _diagram_info -->
<g id="node1" class="node">
<title>_diagram_info</title>
<text text-anchor="start" x="8" y="-202.6" font-family="Times,serif" font-size="13.00" fill="#000000">Models diagram</text>
<text text-anchor="start" x="8" y="-189.6" font-family="Times,serif" font-size="13.00" fill="#000000">Date: Dec 16 2018 &#45; 16:37</text>
<text text-anchor="start" x="8" y="-176.6" font-family="Times,serif" font-size="13.00" fill="#000000">Migration version: 20181216132026</text>
<text text-anchor="start" x="8" y="-163.6" font-family="Times,serif" font-size="13.00" fill="#000000">Generated by RailRoady 1.5.3</text>
<text text-anchor="start" x="8" y="-150.6" font-family="Times,serif" font-size="13.00" fill="#000000">http://railroady.prestonlee.com</text>
</g>
<!-- Userparam -->
<g id="node2" class="node">
<title>Userparam</title>
<ellipse fill="none" stroke="#000000" cx="116.6877" cy="-90" rx="48.8014" ry="18"/>
<text text-anchor="middle" x="116.6877" y="-85.8" font-family="Times,serif" font-size="14.00" fill="#000000">Userparam</text>
</g>
<!-- Coworkingfilter -->
<g id="node3" class="node">
<title>Coworkingfilter</title>
<ellipse fill="none" stroke="#000000" cx="364.6877" cy="-180.5" rx="66.7098" ry="18"/>
<text text-anchor="middle" x="364.6877" y="-176.3" font-family="Times,serif" font-size="14.00" fill="#000000">Coworkingfilter</text>
</g>
<!-- Coworkingspace -->
<g id="node4" class="node">
<title>Coworkingspace</title>
<ellipse fill="none" stroke="#000000" cx="252.6877" cy="-90" rx="69.5823" ry="18"/>
<text text-anchor="middle" x="252.6877" y="-85.8" font-family="Times,serif" font-size="14.00" fill="#000000">Coworkingspace</text>
</g>
<!-- Suggestionspace -->
<g id="node6" class="node">
<title>Suggestionspace</title>
<ellipse fill="none" stroke="#000000" cx="213.6877" cy="-18" rx="69.1064" ry="18"/>
<text text-anchor="middle" x="213.6877" y="-13.8" font-family="Times,serif" font-size="14.00" fill="#000000">Suggestionspace</text>
</g>
<!-- Coworkingspace&#45;&gt;Suggestionspace -->
<g id="edge1" class="edge">
<title>Coworkingspace&#45;&gt;Suggestionspace</title>
<path fill="none" stroke="#1ea1de" d="M238.8922,-64.5314C235.4507,-58.1777 231.7491,-51.344 228.2708,-44.9226"/>
<ellipse fill="none" stroke="#1ea1de" cx="240.9412" cy="-68.3142" rx="4" ry="4"/>
<polygon fill="#1ea1de" stroke="#1ea1de" points="228.1537,-44.7063 227.3477,-33.7701 225.7723,-40.3099 223.3908,-35.9134 223.3908,-35.9134 223.3908,-35.9134 225.7723,-40.3099 219.434,-38.0567 228.1537,-44.7063 228.1537,-44.7063"/>
</g>
<!-- Orderspace -->
<g id="node9" class="node">
<title>Orderspace</title>
<ellipse fill="none" stroke="#000000" cx="350.6877" cy="-18" rx="50.2379" ry="18"/>
<text text-anchor="middle" x="350.6877" y="-13.8" font-family="Times,serif" font-size="14.00" fill="#000000">Orderspace</text>
</g>
<!-- Coworkingspace&#45;&gt;Orderspace -->
<g id="edge2" class="edge">
<title>Coworkingspace&#45;&gt;Orderspace</title>
<path fill="none" stroke="#3cbe7e" d="M282.5175,-68.0843C294.4725,-59.301 308.235,-49.1898 320.2501,-40.3624"/>
<ellipse fill="none" stroke="#3cbe7e" cx="279.1359" cy="-70.5687" rx="4" ry="4"/>
<polygon fill="#3cbe7e" stroke="#3cbe7e" points="320.5805,-40.1197 331.3037,-37.8253 324.6099,-37.1593 328.6393,-34.1989 328.6393,-34.1989 328.6393,-34.1989 324.6099,-37.1593 325.9749,-30.5724 320.5805,-40.1197 320.5805,-40.1197"/>
</g>
<!-- AdminUser -->
<g id="node5" class="node">
<title>AdminUser</title>
<ellipse fill="none" stroke="#000000" cx="500.6877" cy="-180.5" rx="51.2415" ry="18"/>
<text text-anchor="middle" x="500.6877" y="-176.3" font-family="Times,serif" font-size="14.00" fill="#000000">AdminUser</text>
</g>
<!-- ApplicationRecord -->
<g id="node7" class="node">
<title>ApplicationRecord</title>
<ellipse fill="none" stroke="#000000" cx="647.6877" cy="-180.5" rx="77.2916" ry="18"/>
<text text-anchor="middle" x="647.6877" y="-176.3" font-family="Times,serif" font-size="14.00" fill="#000000">ApplicationRecord</text>
</g>
<!-- User -->
<g id="node8" class="node">
<title>User</title>
<ellipse fill="none" stroke="#000000" cx="252.6877" cy="-180.5" rx="27" ry="18"/>
<text text-anchor="middle" x="252.6877" y="-176.3" font-family="Times,serif" font-size="14.00" fill="#000000">User</text>
</g>
<!-- User&#45;&gt;Userparam -->
<g id="edge5" class="edge">
<title>User&#45;&gt;Userparam</title>
<path fill="none" stroke="#6108ca" d="M233.4812,-158.8944C228.3082,-153.6912 222.521,-148.3769 216.6877,-144 197.8788,-129.887 174.9094,-117.211 155.7299,-107.6926"/>
<ellipse fill="none" stroke="#6108ca" cx="236.467" cy="-162.0036" rx="4" ry="4"/>
<ellipse fill="#6108ca" stroke="#6108ca" cx="151.9059" cy="-105.827" rx="4" ry="4"/>
</g>
<!-- User&#45;&gt;Coworkingspace -->
<g id="edge3" class="edge">
<title>User&#45;&gt;Coworkingspace</title>
<path fill="none" stroke="#588dc4" d="M252.6877,-153.9687C252.6877,-142.8402 252.6877,-129.878 252.6877,-118.5429"/>
<ellipse fill="none" stroke="#588dc4" cx="252.6878" cy="-158.186" rx="4" ry="4"/>
<polygon fill="#588dc4" stroke="#588dc4" points="252.6878,-118.2868 257.1877,-108.2867 252.6878,-113.2868 252.6877,-108.2868 252.6877,-108.2868 252.6877,-108.2868 252.6878,-113.2868 248.1877,-108.2868 252.6878,-118.2868 252.6878,-118.2868"/>
</g>
<!-- User&#45;&gt;Orderspace -->
<g id="edge4" class="edge">
<title>User&#45;&gt;Orderspace</title>
<path fill="none" stroke="#2700c3" d="M272.8192,-159.4039C277.9045,-154.2669 283.4193,-148.8558 288.6877,-144 307.0153,-127.1081 318.8536,-129.3663 331.6877,-108 342.9445,-89.2597 347.5954,-64.8263 349.4864,-46.1474"/>
<ellipse fill="none" stroke="#2700c3" cx="269.8856" cy="-162.4004" rx="4" ry="4"/>
<polygon fill="#2700c3" stroke="#2700c3" points="349.4872,-46.1358 354.7792,-36.5314 349.8905,-41.1521 350.2938,-36.1684 350.2938,-36.1684 350.2938,-36.1684 349.8905,-41.1521 345.8085,-35.8055 349.4872,-46.1358 349.4872,-46.1358"/>
</g>
</g>
</svg>
