<?xml version="1.0" encoding="UTF-8" standalone="no"?>
<!DOCTYPE svg PUBLIC "-//W3C//DTD SVG 1.1//EN"
 "http://www.w3.org/Graphics/SVG/1.1/DTD/svg11.dtd">
<!-- Generated by graphviz version 2.40.1 (20161225.0304)
 -->
<!-- Title: models_diagram Pages: 1 -->
<svg width="985pt" height="635pt"
 viewBox="0.00 0.00 985.08 635.00" xmlns="http://www.w3.org/2000/svg" xmlns:xlink="http://www.w3.org/1999/xlink">
<g id="graph0" class="graph" transform="scale(1 1) rotate(0) translate(4 631)">
<title>models_diagram</title>
<polygon fill="transparent" stroke="transparent" points="-4,4 -4,-631 981.0835,-631 981.0835,4 -4,4"/>
<!-- _diagram_info -->
<g id="node1" class="node">
<title>_diagram_info</title>
<text text-anchor="start" x="8" y="-577.6" font-family="Times,serif" font-size="13.00" fill="#000000">Models diagram</text>
<text text-anchor="start" x="8" y="-564.6" font-family="Times,serif" font-size="13.00" fill="#000000">Date: Dec 16 2018 &#45; 16:37</text>
<text text-anchor="start" x="8" y="-551.6" font-family="Times,serif" font-size="13.00" fill="#000000">Migration version: 20181216132026</text>
<text text-anchor="start" x="8" y="-538.6" font-family="Times,serif" font-size="13.00" fill="#000000">Generated by RailRoady 1.5.3</text>
<text text-anchor="start" x="8" y="-525.6" font-family="Times,serif" font-size="13.00" fill="#000000">http://railroady.prestonlee.com</text>
</g>
<!-- Userparam -->
<g id="node2" class="node">
<title>Userparam</title>
<path fill="none" stroke="#000000" d="M64.2581,-207.5C64.2581,-207.5 219.1174,-207.5 219.1174,-207.5 225.1174,-207.5 231.1174,-213.5 231.1174,-219.5 231.1174,-219.5 231.1174,-407.5 231.1174,-407.5 231.1174,-413.5 225.1174,-419.5 219.1174,-419.5 219.1174,-419.5 64.2581,-419.5 64.2581,-419.5 58.2581,-419.5 52.2581,-413.5 52.2581,-407.5 52.2581,-407.5 52.2581,-219.5 52.2581,-219.5 52.2581,-213.5 58.2581,-207.5 64.2581,-207.5"/>
<text text-anchor="middle" x="141.6877" y="-404.3" font-family="Times,serif" font-size="14.00" fill="#000000">Userparam</text>
<polyline fill="none" stroke="#000000" points="52.2581,-397.5 231.1174,-397.5 "/>
<text text-anchor="start" x="60.2581" y="-382.3" font-family="Times,serif" font-size="14.00" fill="#000000">avatar_updated_at :datetime</text>
<text text-anchor="start" x="60.2581" y="-368.3" font-family="Times,serif" font-size="14.00" fill="#000000">user_id :integer</text>
<text text-anchor="start" x="60.2581" y="-354.3" font-family="Times,serif" font-size="14.00" fill="#000000">firstname :varchar</text>
<text text-anchor="start" x="60.2581" y="-340.3" font-family="Times,serif" font-size="14.00" fill="#000000">lastname :varchar</text>
<text text-anchor="start" x="60.2581" y="-326.3" font-family="Times,serif" font-size="14.00" fill="#000000">hometown :varchar</text>
<text text-anchor="start" x="60.2581" y="-312.3" font-family="Times,serif" font-size="14.00" fill="#000000">occupation :varchar</text>
<text text-anchor="start" x="60.2581" y="-298.3" font-family="Times,serif" font-size="14.00" fill="#000000">age :integer</text>
<text text-anchor="start" x="60.2581" y="-284.3" font-family="Times,serif" font-size="14.00" fill="#000000">created_at :datetime</text>
<text text-anchor="start" x="60.2581" y="-270.3" font-family="Times,serif" font-size="14.00" fill="#000000">updated_at :datetime</text>
<text text-anchor="start" x="60.2581" y="-256.3" font-family="Times,serif" font-size="14.00" fill="#000000">avatar_file_name :varchar</text>
<text text-anchor="start" x="60.2581" y="-242.3" font-family="Times,serif" font-size="14.00" fill="#000000">avatar_content_type :varchar</text>
<text text-anchor="start" x="60.2581" y="-228.3" font-family="Times,serif" font-size="14.00" fill="#000000">avatar_file_size :integer</text>
<text text-anchor="start" x="60.2581" y="-214.3" font-family="Times,serif" font-size="14.00" fill="#000000">id :integer</text>
</g>
<!-- Coworkingfilter -->
<g id="node3" class="node">
<title>Coworkingfilter</title>
<path fill="none" stroke="#000000" d="M460.1824,-498.5C460.1824,-498.5 569.1931,-498.5 569.1931,-498.5 575.1931,-498.5 581.1931,-504.5 581.1931,-510.5 581.1931,-510.5 581.1931,-600.5 581.1931,-600.5 581.1931,-606.5 575.1931,-612.5 569.1931,-612.5 569.1931,-612.5 460.1824,-612.5 460.1824,-612.5 454.1824,-612.5 448.1824,-606.5 448.1824,-600.5 448.1824,-600.5 448.1824,-510.5 448.1824,-510.5 448.1824,-504.5 454.1824,-498.5 460.1824,-498.5"/>
<text text-anchor="middle" x="514.6877" y="-597.3" font-family="Times,serif" font-size="14.00" fill="#000000">Coworkingfilter</text>
<polyline fill="none" stroke="#000000" points="448.1824,-590.5 581.1931,-590.5 "/>
<text text-anchor="start" x="456.1824" y="-575.3" font-family="Times,serif" font-size="14.00" fill="#000000">id :integer</text>
<text text-anchor="start" x="456.1824" y="-561.3" font-family="Times,serif" font-size="14.00" fill="#000000">city :varchar</text>
<text text-anchor="start" x="456.1824" y="-547.3" font-family="Times,serif" font-size="14.00" fill="#000000">beginDate :date</text>
<text text-anchor="start" x="456.1824" y="-533.3" font-family="Times,serif" font-size="14.00" fill="#000000">finishDate :date</text>
<text text-anchor="start" x="456.1824" y="-519.3" font-family="Times,serif" font-size="14.00" fill="#000000">created_at :datetime</text>
<text text-anchor="start" x="456.1824" y="-505.3" font-family="Times,serif" font-size="14.00" fill="#000000">updated_at :datetime</text>
</g>
<!-- Coworkingspace -->
<g id="node4" class="node">
<title>Coworkingspace</title>
<path fill="none" stroke="#000000" d="M261.1204,-179.5C261.1204,-179.5 394.2551,-179.5 394.2551,-179.5 400.2551,-179.5 406.2551,-185.5 406.2551,-191.5 406.2551,-191.5 406.2551,-435.5 406.2551,-435.5 406.2551,-441.5 400.2551,-447.5 394.2551,-447.5 394.2551,-447.5 261.1204,-447.5 261.1204,-447.5 255.1204,-447.5 249.1204,-441.5 249.1204,-435.5 249.1204,-435.5 249.1204,-191.5 249.1204,-191.5 249.1204,-185.5 255.1204,-179.5 261.1204,-179.5"/>
<text text-anchor="middle" x="327.6877" y="-432.3" font-family="Times,serif" font-size="14.00" fill="#000000">Coworkingspace</text>
<polyline fill="none" stroke="#000000" points="249.1204,-425.5 406.2551,-425.5 "/>
<text text-anchor="start" x="257.1204" y="-410.3" font-family="Times,serif" font-size="14.00" fill="#000000">image :varchar</text>
<text text-anchor="start" x="257.1204" y="-396.3" font-family="Times,serif" font-size="14.00" fill="#000000">created_at :datetime</text>
<text text-anchor="start" x="257.1204" y="-382.3" font-family="Times,serif" font-size="14.00" fill="#000000">updated_at :datetime</text>
<text text-anchor="start" x="257.1204" y="-368.3" font-family="Times,serif" font-size="14.00" fill="#000000">user_id :integer</text>
<text text-anchor="start" x="257.1204" y="-354.3" font-family="Times,serif" font-size="14.00" fill="#000000">description :varchar</text>
<text text-anchor="start" x="257.1204" y="-340.3" font-family="Times,serif" font-size="14.00" fill="#000000">price :float</text>
<text text-anchor="start" x="257.1204" y="-326.3" font-family="Times,serif" font-size="14.00" fill="#000000">city :varchar</text>
<text text-anchor="start" x="257.1204" y="-312.3" font-family="Times,serif" font-size="14.00" fill="#000000">address :varchar</text>
<text text-anchor="start" x="257.1204" y="-298.3" font-family="Times,serif" font-size="14.00" fill="#000000">beginDate :datetime</text>
<text text-anchor="start" x="257.1204" y="-284.3" font-family="Times,serif" font-size="14.00" fill="#000000">finishDate :datetime</text>
<text text-anchor="start" x="257.1204" y="-270.3" font-family="Times,serif" font-size="14.00" fill="#000000">hasKitchen :boolean</text>
<text text-anchor="start" x="257.1204" y="-256.3" font-family="Times,serif" font-size="14.00" fill="#000000">hasMeetroom :boolean</text>
<text text-anchor="start" x="257.1204" y="-242.3" font-family="Times,serif" font-size="14.00" fill="#000000">hasFreeWiFi :boolean</text>
<text text-anchor="start" x="257.1204" y="-228.3" font-family="Times,serif" font-size="14.00" fill="#000000">hasFreeCookies :boolean</text>
<text text-anchor="start" x="257.1204" y="-214.3" font-family="Times,serif" font-size="14.00" fill="#000000">peopleNumber :integer</text>
<text text-anchor="start" x="257.1204" y="-200.3" font-family="Times,serif" font-size="14.00" fill="#000000">area :float</text>
<text text-anchor="start" x="257.1204" y="-186.3" font-family="Times,serif" font-size="14.00" fill="#000000">id :integer</text>
</g>
<!-- Suggestionspace -->
<g id="node6" class="node">
<title>Suggestionspace</title>
<path fill="none" stroke="#000000" d="M170.1306,-14.5C170.1306,-14.5 317.2449,-14.5 317.2449,-14.5 323.2449,-14.5 329.2449,-20.5 329.2449,-26.5 329.2449,-26.5 329.2449,-116.5 329.2449,-116.5 329.2449,-122.5 323.2449,-128.5 317.2449,-128.5 317.2449,-128.5 170.1306,-128.5 170.1306,-128.5 164.1306,-128.5 158.1306,-122.5 158.1306,-116.5 158.1306,-116.5 158.1306,-26.5 158.1306,-26.5 158.1306,-20.5 164.1306,-14.5 170.1306,-14.5"/>
<text text-anchor="middle" x="243.6877" y="-113.3" font-family="Times,serif" font-size="14.00" fill="#000000">Suggestionspace</text>
<polyline fill="none" stroke="#000000" points="158.1306,-106.5 329.2449,-106.5 "/>
<text text-anchor="start" x="166.1306" y="-91.3" font-family="Times,serif" font-size="14.00" fill="#000000">id :integer</text>
<text text-anchor="start" x="166.1306" y="-77.3" font-family="Times,serif" font-size="14.00" fill="#000000">coworkingspace_id :integer</text>
<text text-anchor="start" x="166.1306" y="-63.3" font-family="Times,serif" font-size="14.00" fill="#000000">beginDate :date</text>
<text text-anchor="start" x="166.1306" y="-49.3" font-family="Times,serif" font-size="14.00" fill="#000000">finishDate :date</text>
<text text-anchor="start" x="166.1306" y="-35.3" font-family="Times,serif" font-size="14.00" fill="#000000">created_at :datetime</text>
<text text-anchor="start" x="166.1306" y="-21.3" font-family="Times,serif" font-size="14.00" fill="#000000">updated_at :datetime</text>
</g>
<!-- Coworkingspace&#45;&gt;Suggestionspace -->
<g id="edge1" class="edge">
<title>Coworkingspace&#45;&gt;Suggestionspace</title>
<path fill="none" stroke="#bf6aaa" d="M278.4059,-171.5213C274.4165,-160.0282 270.5176,-148.7957 266.8591,-138.2556"/>
<ellipse fill="none" stroke="#bf6aaa" cx="279.8312" cy="-175.6278" rx="4" ry="4"/>
<polygon fill="#bf6aaa" stroke="#bf6aaa" points="266.8503,-138.23 267.8223,-127.3073 265.2107,-133.5065 263.5711,-128.7829 263.5711,-128.7829 263.5711,-128.7829 265.2107,-133.5065 259.3199,-130.2586 266.8503,-138.23 266.8503,-138.23"/>
</g>
<!-- Orderspace -->
<g id="node9" class="node">
<title>Orderspace</title>
<path fill="none" stroke="#000000" d="M359.5823,-.5C359.5823,-.5 509.7932,-.5 509.7932,-.5 515.7932,-.5 521.7932,-6.5 521.7932,-12.5 521.7932,-12.5 521.7932,-130.5 521.7932,-130.5 521.7932,-136.5 515.7932,-142.5 509.7932,-142.5 509.7932,-142.5 359.5823,-142.5 359.5823,-142.5 353.5823,-142.5 347.5823,-136.5 347.5823,-130.5 347.5823,-130.5 347.5823,-12.5 347.5823,-12.5 347.5823,-6.5 353.5823,-.5 359.5823,-.5"/>
<text text-anchor="middle" x="434.6877" y="-127.3" font-family="Times,serif" font-size="14.00" fill="#000000">Orderspace</text>
<polyline fill="none" stroke="#000000" points="347.5823,-120.5 521.7932,-120.5 "/>
<text text-anchor="start" x="355.5823" y="-105.3" font-family="Times,serif" font-size="14.00" fill="#000000">updated_at :datetime</text>
<text text-anchor="start" x="355.5823" y="-91.3" font-family="Times,serif" font-size="14.00" fill="#000000">coworkingspace_id :varchar</text>
<text text-anchor="start" x="355.5823" y="-77.3" font-family="Times,serif" font-size="14.00" fill="#000000">peopleNumber :integer</text>
<text text-anchor="start" x="355.5823" y="-63.3" font-family="Times,serif" font-size="14.00" fill="#000000">beginDate :date</text>
<text text-anchor="start" x="355.5823" y="-49.3" font-family="Times,serif" font-size="14.00" fill="#000000">finishDate :date</text>
<text text-anchor="start" x="355.5823" y="-35.3" font-family="Times,serif" font-size="14.00" fill="#000000">user_id :integer</text>
<text text-anchor="start" x="355.5823" y="-21.3" font-family="Times,serif" font-size="14.00" fill="#000000">created_at :datetime</text>
<text text-anchor="start" x="355.5823" y="-7.3" font-family="Times,serif" font-size="14.00" fill="#000000">id :integer</text>
</g>
<!-- Coworkingspace&#45;&gt;Orderspace -->
<g id="edge2" class="edge">
<title>Coworkingspace&#45;&gt;Orderspace</title>
<path fill="none" stroke="#6cd0ba" d="M390.2426,-172.0208C393.2434,-165.2339 396.2051,-158.5355 399.0883,-152.0145"/>
<ellipse fill="none" stroke="#6cd0ba" cx="388.5945" cy="-175.7483" rx="4" ry="4"/>
<polygon fill="#6cd0ba" stroke="#6cd0ba" points="399.2081,-151.7436 407.3676,-144.4174 401.23,-147.1706 403.252,-142.5977 403.252,-142.5977 403.252,-142.5977 401.23,-147.1706 399.1363,-140.7779 399.2081,-151.7436 399.2081,-151.7436"/>
</g>
<!-- AdminUser -->
<g id="node5" class="node">
<title>AdminUser</title>
<path fill="none" stroke="#000000" d="M611.4099,-484.5C611.4099,-484.5 791.9656,-484.5 791.9656,-484.5 797.9656,-484.5 803.9656,-490.5 803.9656,-496.5 803.9656,-496.5 803.9656,-614.5 803.9656,-614.5 803.9656,-620.5 797.9656,-626.5 791.9656,-626.5 791.9656,-626.5 611.4099,-626.5 611.4099,-626.5 605.4099,-626.5 599.4099,-620.5 599.4099,-614.5 599.4099,-614.5 599.4099,-496.5 599.4099,-496.5 599.4099,-490.5 605.4099,-484.5 611.4099,-484.5"/>
<text text-anchor="middle" x="701.6877" y="-611.3" font-family="Times,serif" font-size="14.00" fill="#000000">AdminUser</text>
<polyline fill="none" stroke="#000000" points="599.4099,-604.5 803.9656,-604.5 "/>
<text text-anchor="start" x="607.4099" y="-589.3" font-family="Times,serif" font-size="14.00" fill="#000000">updated_at :datetime</text>
<text text-anchor="start" x="607.4099" y="-575.3" font-family="Times,serif" font-size="14.00" fill="#000000">email :varchar</text>
<text text-anchor="start" x="607.4099" y="-561.3" font-family="Times,serif" font-size="14.00" fill="#000000">encrypted_password :varchar</text>
<text text-anchor="start" x="607.4099" y="-547.3" font-family="Times,serif" font-size="14.00" fill="#000000">reset_password_token :varchar</text>
<text text-anchor="start" x="607.4099" y="-533.3" font-family="Times,serif" font-size="14.00" fill="#000000">reset_password_sent_at :datetime</text>
<text text-anchor="start" x="607.4099" y="-519.3" font-family="Times,serif" font-size="14.00" fill="#000000">remember_created_at :datetime</text>
<text text-anchor="start" x="607.4099" y="-505.3" font-family="Times,serif" font-size="14.00" fill="#000000">created_at :datetime</text>
<text text-anchor="start" x="607.4099" y="-491.3" font-family="Times,serif" font-size="14.00" fill="#000000">id :integer</text>
</g>
<!-- ApplicationRecord -->
<g id="node7" class="node">
<title>ApplicationRecord</title>
<ellipse fill="none" stroke="#000000" cx="899.6877" cy="-555.5" rx="77.2916" ry="18"/>
<text text-anchor="middle" x="899.6877" y="-551.3" font-family="Times,serif" font-size="14.00" fill="#000000">ApplicationRecord</text>
</g>
<!-- User -->
<g id="node8" class="node">
<title>User</title>
<path fill="none" stroke="#000000" d="M237.4099,-484.5C237.4099,-484.5 417.9656,-484.5 417.9656,-484.5 423.9656,-484.5 429.9656,-490.5 429.9656,-496.5 429.9656,-496.5 429.9656,-614.5 429.9656,-614.5 429.9656,-620.5 423.9656,-626.5 417.9656,-626.5 417.9656,-626.5 237.4099,-626.5 237.4099,-626.5 231.4099,-626.5 225.4099,-620.5 225.4099,-614.5 225.4099,-614.5 225.4099,-496.5 225.4099,-496.5 225.4099,-490.5 231.4099,-484.5 237.4099,-484.5"/>
<text text-anchor="middle" x="327.6877" y="-611.3" font-family="Times,serif" font-size="14.00" fill="#000000">User</text>
<polyline fill="none" stroke="#000000" points="225.4099,-604.5 429.9656,-604.5 "/>
<text text-anchor="start" x="233.4099" y="-589.3" font-family="Times,serif" font-size="14.00" fill="#000000">updated_at :datetime</text>
<text text-anchor="start" x="233.4099" y="-575.3" font-family="Times,serif" font-size="14.00" fill="#000000">email :varchar</text>
<text text-anchor="start" x="233.4099" y="-561.3" font-family="Times,serif" font-size="14.00" fill="#000000">encrypted_password :varchar</text>
<text text-anchor="start" x="233.4099" y="-547.3" font-family="Times,serif" font-size="14.00" fill="#000000">reset_password_token :varchar</text>
<text text-anchor="start" x="233.4099" y="-533.3" font-family="Times,serif" font-size="14.00" fill="#000000">reset_password_sent_at :datetime</text>
<text text-anchor="start" x="233.4099" y="-519.3" font-family="Times,serif" font-size="14.00" fill="#000000">remember_created_at :datetime</text>
<text text-anchor="start" x="233.4099" y="-505.3" font-family="Times,serif" font-size="14.00" fill="#000000">created_at :datetime</text>
<text text-anchor="start" x="233.4099" y="-491.3" font-family="Times,serif" font-size="14.00" fill="#000000">id :integer</text>
</g>
<!-- User&#45;&gt;Userparam -->
<g id="edge5" class="edge">
<title>User&#45;&gt;Userparam</title>
<path fill="none" stroke="#a7d6e5" d="M263.1754,-477.7424C255.1809,-467.7999 247.1877,-457.7069 239.6877,-448 234.278,-440.9983 228.7601,-433.7471 223.2374,-426.4061"/>
<ellipse fill="none" stroke="#a7d6e5" cx="265.9125" cy="-481.1354" rx="4" ry="4"/>
<ellipse fill="#a7d6e5" stroke="#a7d6e5" cx="220.5666" cy="-422.844" rx="4" ry="4"/>
</g>
<!-- User&#45;&gt;Coworkingspace -->
<g id="edge3" class="edge">
<title>User&#45;&gt;Coworkingspace</title>
<path fill="none" stroke="#46c4ad" d="M327.6877,-475.9503C327.6877,-470.1204 327.6877,-464.1443 327.6877,-458.0863"/>
<ellipse fill="none" stroke="#46c4ad" cx="327.6878" cy="-480.2009" rx="4" ry="4"/>
<polygon fill="#46c4ad" stroke="#46c4ad" points="327.6878,-457.8248 332.1877,-447.8247 327.6878,-452.8248 327.6877,-447.8248 327.6877,-447.8248 327.6877,-447.8248 327.6878,-452.8248 323.1877,-447.8248 327.6878,-457.8248 327.6878,-457.8248"/>
</g>
<!-- User&#45;&gt;Orderspace -->
<g id="edge4" class="edge">
<title>User&#45;&gt;Orderspace</title>
<path fill="none" stroke="#ea9103" d="M400.4996,-477.4735C406.5142,-468.0413 411.7757,-458.1402 415.6877,-448 452.8306,-351.7243 451.4281,-231.2217 444.871,-152.8557"/>
<ellipse fill="none" stroke="#ea9103" cx="398.2084" cy="-480.9233" rx="4" ry="4"/>
<polygon fill="#ea9103" stroke="#ea9103" points="444.8415,-152.5222 448.4421,-142.1643 444.4006,-147.5416 443.9596,-142.5611 443.9596,-142.5611 443.9596,-142.5611 444.4006,-147.5416 439.4772,-142.958 444.8415,-152.5222 444.8415,-152.5222"/>
</g>
</g>
</svg>
